<svg width="19" height="19" viewBox="0 0 19 19" fill="none" xmlns="http://www.w3.org/2000/svg">
<g clip-path="url(#clip0_2102_854)">
<path d="M12.9125 3.90225C13.0816 3.90225 13.3699 3.92915 13.7772 3.98295C14.1846 4.03675 14.6303 4.19047 15.1146 4.44411C15.6065 4.69005 16.0522 5.10125 16.4519 5.67769C16.4288 5.70075 16.3174 5.7853 16.1176 5.93133C15.9177 6.06968 15.6948 6.27719 15.4489 6.55389C15.2029 6.82289 14.9877 7.16876 14.8033 7.59149C14.6188 8.00652 14.5266 8.50227 14.5266 9.07871C14.5266 9.7397 14.6419 10.3008 14.8724 10.7619C15.1107 11.2231 15.3836 11.5958 15.691 11.8802C16.0061 12.1569 16.2828 12.3606 16.5211 12.4913C16.767 12.6219 16.8977 12.6911 16.9131 12.6988C16.9054 12.7295 16.8055 13.0024 16.6133 13.5173C16.4288 14.0323 16.1214 14.6049 15.691 15.2351C15.3144 15.7808 14.907 16.2842 14.4689 16.7454C14.0385 17.2066 13.5197 17.4371 12.9125 17.4371C12.5052 17.4371 12.1709 17.3795 11.9095 17.2642C11.6482 17.1412 11.3792 17.0221 11.1025 16.9068C10.8258 16.7838 10.4531 16.7223 9.98421 16.7223C9.53074 16.7223 9.15029 16.7838 8.84285 16.9068C8.5431 17.0298 8.25488 17.1528 7.97819 17.2757C7.70918 17.3987 7.39022 17.4602 7.02129 17.4602C6.46022 17.4602 5.96832 17.2373 5.5456 16.7915C5.12287 16.3457 4.68862 15.8116 4.24284 15.189C3.72788 14.4512 3.28594 13.5519 2.91702 12.4913C2.55578 11.4229 2.37516 10.3469 2.37516 9.26317C2.37516 8.1026 2.59421 7.13033 3.03231 6.34637C3.4704 5.55472 4.03148 4.95906 4.71552 4.55939C5.40725 4.15204 6.12204 3.94836 6.85989 3.94836C7.25187 3.94836 7.6208 4.01369 7.96666 4.14436C8.31253 4.26733 8.63533 4.39415 8.93509 4.52481C9.24252 4.65547 9.51921 4.7208 9.76516 4.7208C10.0034 4.7208 10.2801 4.65163 10.5952 4.51328C10.9104 4.37493 11.2639 4.24043 11.6559 4.10977C12.0479 3.97142 12.4668 3.90225 12.9125 3.90225ZM12.2785 2.43808C11.9787 2.79932 11.6021 3.10291 11.1486 3.34886C10.6952 3.58713 10.2647 3.70626 9.85739 3.70626C9.77285 3.70626 9.69215 3.69857 9.61529 3.6832C9.6076 3.66014 9.59992 3.61787 9.59223 3.55638C9.58454 3.4949 9.5807 3.42957 9.5807 3.36039C9.5807 2.89924 9.68062 2.45346 9.88045 2.02304C10.0803 1.58495 10.307 1.22371 10.5607 0.939331C10.8835 0.555036 11.2908 0.236071 11.7827 -0.0175643C12.2746 -0.271199 12.7435 -0.405703 13.1892 -0.421074C13.2123 -0.321158 13.2238 -0.202026 13.2238 -0.0636797C13.2238 0.397475 13.1354 0.8471 12.9587 1.2852C12.7819 1.71561 12.5551 2.0999 12.2785 2.43808Z" fill="white"/>
</g>
<defs>
<clipPath id="clip0_2102_854">
<rect width="18" height="18" fill="white" transform="translate(0.5 0.5)"/>
</clipPath>
</defs>
</svg>
