<svg width="24" height="24" viewBox="0 0 24 24" fill="none" xmlns="http://www.w3.org/2000/svg">
<path d="M10.4287 6.83333H8.56205C7.81532 6.83333 7.44167 6.83333 7.15645 6.97866C6.90557 7.10649 6.70174 7.31032 6.57391 7.5612C6.42859 7.84641 6.42859 8.22006 6.42859 8.9668V15.3668C6.42859 16.1135 6.42859 16.4867 6.57391 16.7719C6.70174 17.0228 6.90557 17.227 7.15645 17.3548C7.44139 17.5 7.81458 17.5 8.55986 17.5H14.964C15.7093 17.5 16.0819 17.5 16.3669 17.3548C16.6177 17.227 16.8222 17.0226 16.9501 16.7717C17.0953 16.4868 17.0953 16.114 17.0953 15.3687V13.5M14.4286 7.5L10.4286 11.5V13.5H12.4286L16.4286 9.5M14.4286 7.5L16.4286 5.5L18.4286 7.5L16.4286 9.5M14.4286 7.5L16.4286 9.5" stroke="currentColor" stroke-width="1.5" stroke-linecap="round" stroke-linejoin="round"/>
</svg>
