<svg width="40" height="40" viewBox="0 0 40 40" fill="none" xmlns="http://www.w3.org/2000/svg">
<path d="M31.2509 10C31.2509 8.89543 30.3554 8 29.2509 8H6.25085C5.14629 8 4.25085 8.89543 4.25085 10V30C4.25085 31.1046 5.14628 32 6.25085 32H29.2509C30.3554 32 31.2509 31.1046 31.2509 30V10Z" fill="#98B0FF"/>
<path d="M7.87694 13.5631C8.08145 12.6495 8.8924 12 9.82865 12L33.8098 12C35.0721 12 36.0187 13.155 35.7708 14.3927L32.5668 30.3927C32.3796 31.3273 31.5589 32 30.6057 32H6.24718C4.96642 32 4.01571 30.813 4.29547 29.5631L7.87694 13.5631Z" fill="#B6C7FF"/>
</svg>
