<svg width="19" height="19" viewBox="0 0 19 19" fill="none" xmlns="http://www.w3.org/2000/svg">
<mask id="mask0_2102_839" style="mask-type:luminance" maskUnits="userSpaceOnUse" x="0" y="0" width="19" height="19">
<path d="M18.5 0.5H0.5V18.5H18.5V0.5Z" fill="white"/>
</mask>
<g mask="url(#mask0_2102_839)">
<path d="M18.14 9.70448C18.14 9.06629 18.0828 8.45267 17.9764 7.86353H9.5V11.3449H14.3436C14.135 12.4699 13.501 13.4231 12.5478 14.0613V16.3195H15.4564C17.1582 14.7527 18.14 12.4453 18.14 9.70448Z" fill="#4285F4"/>
<path d="M9.50001 18.5C11.93 18.5 13.9672 17.694 15.4563 16.3195L12.5477 14.0613C11.7418 14.6013 10.7109 14.9204 9.50001 14.9204C7.15587 14.9204 5.17181 13.3372 4.46405 11.21H1.45724V13.5418C2.93819 16.4832 5.98182 18.5 9.50001 18.5Z" fill="#34A853"/>
<path d="M4.46405 11.2101C4.28405 10.6701 4.18181 10.0933 4.18181 9.50006C4.18181 8.90687 4.28405 8.33006 4.46405 7.79006V5.45825H1.45724C0.84776 6.67325 0.5 8.04782 0.5 9.50006C0.5 10.9523 0.84776 12.3269 1.45724 13.5419L4.46405 11.2101Z" fill="#FBBC04"/>
<path d="M9.50001 4.07957C10.8213 4.07957 12.0077 4.53362 12.9404 5.42543L15.5218 2.84405C13.9632 1.39181 11.9259 0.5 9.50001 0.5C5.98182 0.5 2.93819 2.51681 1.45724 5.45819L4.46405 7.79C5.17181 5.66276 7.15587 4.07957 9.50001 4.07957Z" fill="#E94235"/>
</g>
</svg>
