<svg width="20" height="20" viewBox="0 0 20 20" fill="none" xmlns="http://www.w3.org/2000/svg">
<path fill-rule="evenodd" clip-rule="evenodd" d="M19.268 10.0009C19.268 9.60311 19.1368 9.21944 18.9 8.92412C17.4 7.10802 13.9857 3.57227 9.99999 3.57227C6.01428 3.57227 2.59999 7.10802 1.09999 8.92412C0.863075 9.21944 0.731934 9.60311 0.731934 10.0009C0.731934 10.3987 0.863075 10.7824 1.09999 11.0777C2.59999 12.8938 6.01428 16.4296 9.99999 16.4296C13.9857 16.4296 17.4 12.8938 18.9 11.0777C19.1368 10.7824 19.268 10.3987 19.268 10.0009ZM9.99999 7.14369C11.5779 7.14369 12.8571 8.42288 12.8571 10.0008C12.8571 10.7898 12.5373 11.5041 12.0203 12.0211L7.97968 7.98054C8.49672 7.46349 9.21101 7.14369 9.99999 7.14369Z" fill="#E9E9E9"/>
<path d="M5.18452 5.17855C6.60273 4.25698 8.24603 3.57227 9.99999 3.57227C13.9857 3.57227 17.4 7.10802 18.9 8.92412C19.1368 9.21944 19.268 9.60311 19.268 10.0009C19.268 10.3987 19.1368 10.7824 18.9 11.0777C18.0731 12.0788 16.6647 13.6024 14.8994 14.7683M12.1428 16.1004C11.4537 16.3088 10.7366 16.4296 9.99999 16.4296C6.01428 16.4296 2.59999 12.8938 1.09999 11.0777C0.863075 10.7824 0.731934 10.3987 0.731934 10.0009C0.731934 9.60311 0.863075 9.21944 1.09999 8.92412C1.57523 8.34872 2.24263 7.60071 3.05949 6.84722" stroke="currentColor" stroke-width="1.42857" stroke-linecap="round" stroke-linejoin="round"/>
<path d="M9.99997 12.8578C11.5779 12.8578 12.8571 11.5787 12.8571 10.0007C12.8571 8.42274 11.5779 7.14355 9.99997 7.14355C8.42201 7.14355 7.14282 8.42274 7.14282 10.0007C7.14282 11.5787 8.42201 12.8578 9.99997 12.8578Z" fill="white"/>
<path d="M12.0203 12.021C13.1361 10.9052 13.1361 9.09618 12.0203 7.98039C10.9045 6.86461 9.09546 6.86461 7.97968 7.98039" stroke="currentColor" stroke-width="1.42857" stroke-linecap="round" stroke-linejoin="round"/>
<path d="M18 18L2 2" stroke="currentColor" stroke-width="1.42857" stroke-linecap="round" stroke-linejoin="round"/>
</svg>
