<svg width="110" height="32" viewBox="0 0 110 32" fill="none" xmlns="http://www.w3.org/2000/svg">
<g clip-path="url(#clip0_196_962)">
<path d="M2.23502 11.3724C2.23502 10.1835 3.52211 9.44037 4.55179 10.0349L14.8387 15.974C15.3165 16.2499 15.6109 16.7598 15.6109 17.3116L15.6109 29.6997C15.6109 30.8887 14.3238 31.6318 13.2942 31.0373L3.00727 25.0982C2.5294 24.8223 2.23501 24.3124 2.23501 23.7606L2.23502 11.3724Z" fill="#4E77FF"/>
<path d="M7.42483 4.75636C7.8984 4.48437 8.4804 4.48269 8.95553 4.75194L19.2393 10.5795C20.2613 11.1587 20.2883 12.6215 19.2884 13.238L17.4775 14.3545C16.9942 14.6525 16.3863 14.6612 15.8946 14.3774L5.63982 8.45673C4.60879 7.86146 4.61048 6.37272 5.64286 5.7798L7.42483 4.75636Z" fill="#4E77FF"/>
<path d="M13.7309 0.927745C14.2045 0.65576 14.7865 0.654081 15.2616 0.923327L25.5454 6.7509C26.5674 7.33005 26.5944 8.7929 25.5945 9.40939L23.7836 10.5259C23.3003 10.8238 22.6924 10.8326 22.2007 10.5487L11.9459 4.62812C10.9149 4.03285 10.9166 2.54411 11.9489 1.95118L13.7309 0.927745Z" fill="#4E77FF"/>
<path d="M29.2636 22.5549C30.2277 23.1604 30.2277 24.5654 29.2636 25.1708L19.9997 30.9887C18.9711 31.6347 17.6337 30.8953 17.6337 29.6807L17.6337 18.045C17.6337 16.8304 18.9711 16.091 19.9997 16.737L29.2636 22.5549Z" fill="#4E77FF"/>
</g>
<path d="M52.9792 6.45833V20.5833H50.4583V6.45833H52.9792ZM49.125 6.75V20H46.625V13.6875H44.8958V17.2292H37.3542V8.27083H44.8958V11.5208H46.625V6.75H49.125ZM53.4583 22.9583V25.0833H40.125V18.8958H42.7917V22.9583H53.4583ZM39.8542 10.3333V15.2083H42.4167V10.3333H39.8542ZM70.5833 16.25V18.3542H57.1667V7.85417H70.4375V10H59.875V12H70V14.0833H59.875V16.25H70.5833ZM72.4792 21.0417V23.2083H55.125V21.0417H72.4792ZM88.6042 6.45833V11.1042H91.1667V13.25H88.6042V17.8542H85.9375V6.45833H88.6042ZM88.6042 18.6875V25.4167H85.9375V20.7917H75.8333V18.6875H88.6042ZM76.7708 7.64583V10.1667H80.6458V7.64583H83.3125V16.8542H74.125V7.64583H76.7708ZM76.7708 14.75H80.6458V12.2292H76.7708V14.75ZM101.979 8.95833C101.979 11.7292 104.438 14.7083 108.729 15.4375L107.563 17.6458C104.26 16.9896 101.802 15.1354 100.583 12.6875C99.3229 15.1146 96.8646 16.9792 93.5833 17.6458L92.4375 15.4375C96.6458 14.6875 99.125 11.7083 99.1458 8.95833V7.58333H101.979V8.95833ZM109.354 20.8958V23.0833H92V20.8958H109.354Z" fill="#4E77FF"/>
<defs>
<clipPath id="clip0_196_962">
<rect width="32" height="32" fill="white"/>
</clipPath>
</defs>
</svg>
