<svg width="32" height="32" viewBox="0 0 32 32" fill="none" xmlns="http://www.w3.org/2000/svg">
<g clip-path="url(#clip0_2325_539)">
<path d="M2.23502 11.3724C2.23502 10.1835 3.52211 9.44037 4.55179 10.0349L14.8387 15.974C15.3165 16.2499 15.6109 16.7598 15.6109 17.3116L15.6109 29.6997C15.6109 30.8887 14.3238 31.6318 13.2942 31.0373L3.00727 25.0982C2.5294 24.8223 2.23501 24.3124 2.23501 23.7606L2.23502 11.3724Z" fill="#4E77FF"/>
<path d="M7.42483 4.75636C7.8984 4.48437 8.4804 4.48269 8.95553 4.75194L19.2393 10.5795C20.2613 11.1587 20.2883 12.6215 19.2884 13.238L17.4775 14.3545C16.9942 14.6525 16.3863 14.6612 15.8946 14.3774L5.63982 8.45673C4.60879 7.86146 4.61048 6.37272 5.64286 5.7798L7.42483 4.75636Z" fill="#4E77FF"/>
<path d="M13.7309 0.927745C14.2045 0.65576 14.7865 0.654081 15.2616 0.923327L25.5454 6.7509C26.5674 7.33005 26.5944 8.7929 25.5945 9.40939L23.7836 10.5259C23.3003 10.8238 22.6924 10.8326 22.2007 10.5487L11.9459 4.62812C10.9149 4.03285 10.9166 2.54411 11.9489 1.95118L13.7309 0.927745Z" fill="#4E77FF"/>
<path d="M29.2636 22.5549C30.2277 23.1604 30.2277 24.5654 29.2636 25.1708L19.9997 30.9887C18.9711 31.6347 17.6337 30.8953 17.6337 29.6807L17.6337 18.045C17.6337 16.8304 18.9711 16.091 19.9997 16.737L29.2636 22.5549Z" fill="#4E77FF"/>
</g>
<defs>
<clipPath id="clip0_2325_539">
<rect width="32" height="32" fill="white"/>
</clipPath>
</defs>
</svg>
