<svg width="28" height="28" viewBox="0 0 28 28" fill="none" xmlns="http://www.w3.org/2000/svg">
<g clip-path="url(#clip0_2422_1206)">
<path d="M10.6666 6.77832H7.88882C7.27517 6.77832 6.77771 7.27578 6.77771 7.88943V20.1117C6.77771 20.7253 7.27517 21.2228 7.88882 21.2228H10.6666C11.2802 21.2228 11.7777 20.7253 11.7777 20.1117V7.88943C11.7777 7.27578 11.2802 6.77832 10.6666 6.77832Z" fill="currentColor"/>
<path d="M20.1111 6.77832H17.3333C16.7196 6.77832 16.2222 7.27578 16.2222 7.88943V20.1117C16.2222 20.7253 16.7196 21.2228 17.3333 21.2228H20.1111C20.7247 21.2228 21.2222 20.7253 21.2222 20.1117V7.88943C21.2222 7.27578 20.7247 6.77832 20.1111 6.77832Z" fill="currentColor"/>
<path d="M10.6666 6.77832H7.88882C7.27517 6.77832 6.77771 7.27578 6.77771 7.88943V20.1117C6.77771 20.7253 7.27517 21.2228 7.88882 21.2228H10.6666C11.2802 21.2228 11.7777 20.7253 11.7777 20.1117V7.88943C11.7777 7.27578 11.2802 6.77832 10.6666 6.77832Z" stroke="currentColor" stroke-width="1.42857" stroke-linecap="round" stroke-linejoin="round"/>
<path d="M20.1111 6.77832H17.3333C16.7196 6.77832 16.2222 7.27578 16.2222 7.88943V20.1117C16.2222 20.7253 16.7196 21.2228 17.3333 21.2228H20.1111C20.7247 21.2228 21.2222 20.7253 21.2222 20.1117V7.88943C21.2222 7.27578 20.7247 6.77832 20.1111 6.77832Z" stroke="currentColor" stroke-width="1.42857" stroke-linecap="round" stroke-linejoin="round"/>
</g>
<defs>
<clipPath id="clip0_2422_1206">
<rect width="15.5556" height="15.5556" fill="white" transform="translate(6.22217 6.22266)"/>
</clipPath>
</defs>
</svg>
