<svg width="18" height="19" viewBox="0 0 18 19" fill="none" xmlns="http://www.w3.org/2000/svg">
<rect x="14.2503" y="10.7853" width="1.31641" height="4.47485" rx="0.39608" fill="#A05FE9"/>
<rect x="2.43326" y="10.7853" width="1.31641" height="4.47485" rx="0.39608" fill="#A05FE9"/>
<path d="M3.26338 8.71567C3.26338 5.54747 5.83172 2.97913 8.99992 2.97913C12.1681 2.97913 14.7365 5.54746 14.7365 8.71566V14.9974C14.7365 15.6892 14.1756 16.25 13.4838 16.25H4.516C3.8242 16.25 3.26338 15.6892 3.26338 14.9974V8.71567Z" fill="#C4A1EA"/>
<path d="M4.1295 11.4034C4.1295 10.7116 4.69032 10.1508 5.38212 10.1508H12.6178C13.3096 10.1508 13.8704 10.7116 13.8704 11.4034V14.2181C13.8704 14.9099 13.3096 15.4708 12.6178 15.4708H5.38212C4.69032 15.4708 4.1295 14.9099 4.1295 14.2181V11.4034Z" fill="#A05FE9"/>
<rect x="5.18451" y="11.0327" width="7.63068" height="0.554728" rx="0.277364" fill="white" fill-opacity="0.8"/>
<path d="M5.53775 14.2156C5.50168 14.2156 5.47307 14.1852 5.47523 14.1492L5.64573 11.3163C5.64772 11.2832 5.67512 11.2574 5.70825 11.2574L6.2522 11.2574C6.28538 11.2574 6.31281 11.2833 6.31473 11.3165L6.47904 14.1493C6.48113 14.1853 6.45253 14.2156 6.41652 14.2156L5.53775 14.2156Z" fill="#FFDC74"/>
<path d="M5.20003 4.12805C5.20003 4.074 5.21077 4.02033 5.23425 3.97164C5.5271 3.36456 6.10566 2.87246 6.74511 2.77737C6.94899 2.74705 7.1076 2.92476 7.1076 3.13089V8.07466C7.1076 8.60142 6.68058 9.02844 6.15381 9.02844C5.62705 9.02844 5.20003 8.60142 5.20003 8.07466V4.12805Z" fill="#A05FE9"/>
<path d="M12.8 4.12805C12.8 4.074 12.7893 4.02033 12.7658 3.97164C12.473 3.36456 11.8944 2.87246 11.255 2.77737C11.0511 2.74705 10.8925 2.92476 10.8925 3.13089V8.07466C10.8925 8.60142 11.3195 9.02844 11.8462 9.02844C12.373 9.02844 12.8 8.60142 12.8 8.07466V4.12805Z" fill="#A05FE9"/>
</svg>
