<svg width="18" height="19" viewBox="0 0 18 19" fill="none" xmlns="http://www.w3.org/2000/svg">
<path d="M13.2388 4.62415C14.7086 4.62416 15.8999 5.81544 15.8999 7.28528V11.8634C15.8997 13.3331 14.7085 14.5245 13.2388 14.5245H7.12061C6.71861 15.3071 5.97183 15.7194 5.31592 15.9093C4.89724 16.0305 4.494 16.0696 4.19775 16.0568C4.05537 16.0506 3.91103 16.0308 3.79736 15.9874C3.74791 15.9685 3.6517 15.9262 3.58252 15.8331C3.54286 15.7796 3.5094 15.7049 3.5083 15.6144C3.50727 15.5248 3.53836 15.4512 3.57275 15.3995L3.67139 15.2394C3.87032 14.8851 3.85958 14.6647 3.81396 14.5216C3.78831 14.4414 3.7452 14.371 3.69287 14.2999C2.75528 13.8883 2.10026 12.9529 2.1001 11.8634V7.28528C2.10013 5.81543 3.29138 4.62415 4.76123 4.62415H13.2388Z" fill="#FF8BE8"/>
<circle cx="6.10378" cy="9.53949" r="0.766667" fill="white"/>
<circle cx="9.00013" cy="9.53949" r="0.766667" fill="white"/>
<circle cx="11.8965" cy="9.53949" r="0.766667" fill="white"/>
</svg>
