<svg width="18" height="19" viewBox="0 0 18 19" fill="none" xmlns="http://www.w3.org/2000/svg">
<circle cx="10.6599" cy="7.82791" r="5.07791" fill="#747474"/>
<circle cx="10.6598" cy="7.82795" r="3.70735" fill="#E7E7E7"/>
<circle cx="10.6598" cy="7.82795" r="3.70735" fill="#E7E7E7"/>
<path d="M3.82116 15.9814C3.67282 16.1297 3.43231 16.1297 3.28397 15.9814L2.53073 15.2282C2.38239 15.0798 2.38239 14.8393 2.53073 14.691L5.46796 11.7538C5.55765 11.6641 5.6862 11.6251 5.81061 11.6498L6.43889 11.7747C6.5896 11.8046 6.70742 11.9224 6.73739 12.0732L6.86234 12.7015C6.88708 12.8259 6.84807 12.9545 6.75837 13.0442L3.82116 15.9814Z" fill="#363636"/>
<path d="M6.85651 12.3036C6.78234 12.3777 6.66209 12.3777 6.58792 12.3036L6.19284 11.9085C6.11867 11.8343 6.11867 11.7141 6.19284 11.6399L6.73115 11.1016C6.80508 11.0277 6.92486 11.0274 6.99913 11.101L7.19816 11.2982L7.39542 11.4973C7.46902 11.5715 7.46875 11.6913 7.39481 11.7653L6.85651 12.3036Z" fill="#BEC6C8"/>
</svg>
