<svg width="18" height="19" viewBox="0 0 18 19" fill="none" xmlns="http://www.w3.org/2000/svg">
<rect x="5.85043" y="2.74036" width="6.32665" height="1.96499" rx="0.211021" fill="#0272B0"/>
<path d="M2.1163 5.58221C2.1163 4.99949 2.58869 4.5271 3.17141 4.5271H5.55816H8.96903H12.4419H14.8286C15.4114 4.5271 15.8837 4.99949 15.8837 5.58221V15.3448C15.8837 15.9275 15.4114 16.3999 14.8286 16.3999H3.17141C2.58869 16.3999 2.1163 15.9275 2.1163 15.3448V5.58221Z" fill="#C9E5FF"/>
<path d="M11.3548 15.89C11.4107 16.1526 11.2104 16.3999 10.942 16.3999L8.98765 16.3998L7.04513 16.3999C6.77653 16.3999 6.57626 16.1523 6.63238 15.8897L7.97252 9.61694C8.01412 9.42223 8.18614 9.28307 8.38525 9.28307L9.60785 9.28307C9.8071 9.28307 9.97921 9.42242 10.0207 9.61731L11.3548 15.89Z" fill="#FFD400"/>
<path d="M7.29238 7.05398C7.2378 6.83407 7.3666 6.61029 7.58417 6.54704L8.87798 6.17089C8.95475 6.14857 9.03628 6.14851 9.11308 6.17073L10.4155 6.54746C10.6333 6.61046 10.7624 6.83431 10.7078 7.05439L10.1879 9.15267C10.1413 9.34097 9.97225 9.47321 9.77826 9.47321H8.223C8.02908 9.47321 7.86011 9.34106 7.81339 9.15285L7.29238 7.05398Z" fill="#FF9B05"/>
<path d="M4.47505 4.61119C4.41172 4.48502 4.43385 4.32872 4.52789 4.22726L5.82104 2.832C5.93987 2.70379 6.13254 2.70379 6.25137 2.832L8.9364 5.72903C9.05523 5.85725 9.05523 6.06513 8.9364 6.19334L7.64364 7.58817C7.54942 7.68983 7.4042 7.71358 7.28714 7.6449C5.90512 6.83403 5.23526 6.12549 4.47505 4.61119Z" fill="#0499EC"/>
<path d="M13.5116 4.61119C13.5749 4.48502 13.5528 4.32872 13.4587 4.22726L12.1656 2.832C12.0467 2.70379 11.8541 2.70379 11.7352 2.832L9.05022 5.72903C8.93139 5.85725 8.93139 6.06513 9.05022 6.19334L10.343 7.58817C10.4372 7.68983 10.5824 7.71358 10.6995 7.6449C12.0815 6.83403 12.7514 6.12549 13.5116 4.61119Z" fill="#0499EC"/>
</svg>
