<svg width="18" height="19" viewBox="0 0 18 19" fill="none" xmlns="http://www.w3.org/2000/svg">
<rect x="1.77881" y="5.1936" width="14.4423" height="10.2463" rx="1" fill="#5E3422"/>
<path d="M1.77881 6.1936C1.77881 5.64132 2.22652 5.1936 2.77881 5.1936H15.2211C15.7734 5.1936 16.2211 5.64132 16.2211 6.1936V7.21545C16.2211 9.97688 13.9826 12.2155 11.2211 12.2155H6.77881C4.01738 12.2155 1.77881 9.97688 1.77881 7.21545V6.1936Z" fill="#88472A"/>
<rect x="7.31613" y="10.8696" width="3.36746" height="2.05268" rx="0.6" fill="#D9D9D9"/>
<rect x="6.29407" y="3.6239" width="1.19421" height="2.60193" rx="0.597107" fill="#D9D9D9"/>
<rect x="10.5117" y="3.6239" width="1.19421" height="2.60193" rx="0.597107" fill="#D9D9D9"/>
<path d="M6.89099 4.18506C8.51081 3.37368 9.44908 3.33118 11.1086 4.18588" stroke="#5E3422" stroke-width="1.19" stroke-linecap="round"/>
</svg>
