<svg width="19" height="19" viewBox="0 0 19 19" fill="none" xmlns="http://www.w3.org/2000/svg">
<g clip-path="url(#clip0_2217_246)">
<rect x="12.2879" y="9.52625" width="4.84283" height="6.72343" rx="0.241241" fill="#FFE9A7"/>
<path d="M16.3514 8.37533C16.3057 8.31558 16.2348 8.28052 16.1596 8.28052H12.2632C12.13 8.28052 12.022 8.38852 12.022 8.52176V10.1278C12.022 10.261 12.13 10.369 12.2632 10.369H17.3863C17.586 10.369 17.6992 10.1401 17.578 9.98134L16.3514 8.37533Z" fill="#FF6000"/>
<rect x="1.71161" y="9.52625" width="4.84283" height="6.72343" rx="0.241241" fill="#FFE9A7"/>
<path d="M2.22499 8.37533C2.27063 8.31558 2.34152 8.28052 2.41671 8.28052H6.31316C6.4464 8.28052 6.5544 8.38852 6.5544 8.52176V10.1278C6.5544 10.261 6.4464 10.369 6.31316 10.369H1.19008C0.990314 10.369 0.877108 10.1401 0.998363 9.98134L2.22499 8.37533Z" fill="#FF6000"/>
<path d="M5.70966 5.26709C5.70966 5.18483 5.75158 5.10823 5.82087 5.06389L9.30737 2.83289C9.38663 2.78217 9.48816 2.78217 9.56742 2.83289L13.0539 5.06389C13.1232 5.10823 13.1651 5.18483 13.1651 5.26709V16.0085C13.1651 16.1417 13.0571 16.2498 12.9239 16.2498H5.9509C5.81766 16.2498 5.70966 16.1417 5.70966 16.0085V5.26709Z" fill="#FFE9A7"/>
<circle cx="9.43744" cy="7.9057" r="1.92949" fill="white" stroke="#56250F" stroke-width="0.361861"/>
<path d="M9.43741 6.79724L9.43741 7.90568" stroke="#56250F" stroke-width="0.361861" stroke-linecap="round"/>
<path d="M10.5461 7.90552L9.43731 7.90552" stroke="#56250F" stroke-width="0.361861" stroke-linecap="round"/>
<path d="M5.70975 5.97512L9.04283 3.0912C9.26939 2.89517 9.60551 2.89517 9.83207 3.0912L13.1652 5.97513" stroke="#FF6000" stroke-width="1.2062" stroke-linecap="round"/>
<path d="M7.4657 13.8128C7.4657 12.7239 8.34849 11.8411 9.43747 11.8411C10.5264 11.8411 11.4092 12.7239 11.4092 13.8128V16.0802C11.4092 16.1739 11.3333 16.2498 11.2397 16.2498H7.63527C7.54162 16.2498 7.4657 16.1739 7.4657 16.0802V13.8128Z" fill="#FF6000"/>
</g>
<defs>
<clipPath id="clip0_2217_246">
<rect width="18" height="18" fill="white" transform="translate(0.288208 0.5)"/>
</clipPath>
</defs>
</svg>
