<svg width="18" height="19" viewBox="0 0 18 19" fill="none" xmlns="http://www.w3.org/2000/svg">
<circle cx="12.2914" cy="5.75478" r="2.57143" fill="#98B0FF"/>
<path d="M9.51752 9.06595C9.72493 8.84854 10.0718 8.8533 10.3172 9.02671C10.7428 9.32741 11.4574 9.72007 12.2878 9.72007C13.1182 9.72007 13.8328 9.32741 14.2584 9.02671C14.5038 8.85331 14.8507 8.84855 15.0582 9.06584C16.9113 11.0062 17.5613 13.5306 16.4671 15.9429C16.3804 16.134 16.1861 16.2504 15.9763 16.2504H8.59511C8.38367 16.2504 8.18807 16.1321 8.10232 15.9388C7.03252 13.5277 7.66753 11.0052 9.51752 9.06595Z" fill="#98B0FF"/>
<circle cx="5.70876" cy="5.75478" r="2.57143" fill="#4E77FF"/>
<path d="M2.93491 9.06595C3.14232 8.84854 3.48922 8.8533 3.73462 9.02671C4.16016 9.32741 4.87482 9.72007 5.70519 9.72007C6.53556 9.72007 7.25022 9.32741 7.67576 9.02671C7.92116 8.85331 8.26805 8.84855 8.47558 9.06584C10.3287 11.0062 10.9787 13.5306 9.88446 15.9429C9.79781 16.134 9.60345 16.2504 9.39369 16.2504H2.0125C1.80106 16.2504 1.60546 16.1321 1.51971 15.9388C0.449908 13.5277 1.08492 11.0052 2.93491 9.06595Z" fill="#4E77FF"/>
</svg>
